<svg width="238" height="42" viewBox="0 0 238 42" fill="none" xmlns="http://www.w3.org/2000/svg">
<path d="M81.06 33V4.86H82.11V33H81.06ZM76.44 33V4.86H77.49V33H76.44ZM78.75 33V4.86H79.8V33H78.75ZM62.37 33V4.86H63.42V33H62.37ZM57.75 33V4.86H58.8V33H57.75ZM60.06 33V4.86H61.11V33H60.06ZM75.18 23.305L64.68 8.22V6.365L75.18 21.45V23.305ZM75.18 27.365L64.68 12.28V10.425L75.18 25.51V27.365ZM75.18 31.425L64.68 16.34V14.485L75.18 29.57V31.425ZM96.1414 28.905C94.8114 28.905 93.7031 28.6367 92.8164 28.1C91.9531 27.5633 91.2998 26.8517 90.8564 25.965C90.4364 25.055 90.2264 24.0517 90.2264 22.955V4.86H91.2764V22.955C91.2764 24.3083 91.6614 25.4633 92.4314 26.42C93.2014 27.3767 94.4381 27.855 96.1414 27.855C97.8448 27.855 99.0814 27.3767 99.8514 26.42C100.621 25.4633 101.006 24.3083 101.006 22.955V4.86H102.056V22.955C102.056 24.0517 101.835 25.055 101.391 25.965C100.971 26.8517 100.318 27.5633 99.4314 28.1C98.5681 28.6367 97.4714 28.905 96.1414 28.905ZM96.1414 33.525C93.9714 33.525 92.0931 33.0583 90.5064 32.125C88.9431 31.1683 87.7298 29.885 86.8664 28.275C86.0264 26.665 85.6064 24.8917 85.6064 22.955V4.86H86.6564V22.955C86.6564 24.705 87.0298 26.3033 87.7764 27.75C88.5464 29.1967 89.6314 30.3517 91.0314 31.215C92.4548 32.055 94.1581 32.475 96.1414 32.475C98.1248 32.475 99.8164 32.055 101.216 31.215C102.64 30.3517 103.725 29.1967 104.471 27.75C105.241 26.3033 105.626 24.705 105.626 22.955V4.86H106.676V22.955C106.676 24.8917 106.245 26.665 105.381 28.275C104.541 29.885 103.34 31.1683 101.776 32.125C100.213 33.0583 98.3348 33.525 96.1414 33.525ZM96.1414 31.215C94.3914 31.215 92.8981 30.8417 91.6614 30.095C90.4481 29.3483 89.5148 28.3567 88.8614 27.12C88.2314 25.86 87.9164 24.4717 87.9164 22.955V4.86H88.9664V22.955C88.9664 24.285 89.2348 25.4983 89.7714 26.595C90.3314 27.6683 91.1481 28.5317 92.2214 29.185C93.2948 29.8383 94.6014 30.165 96.1414 30.165C97.7048 30.165 99.0114 29.8383 100.061 29.185C101.135 28.5317 101.94 27.6683 102.476 26.595C103.036 25.4983 103.316 24.285 103.316 22.955V4.86H104.366V22.955C104.366 24.4717 104.04 25.86 103.386 27.12C102.756 28.3567 101.823 29.3483 100.586 30.095C99.3731 30.8417 97.8914 31.215 96.1414 31.215ZM119.877 28.905C118.22 28.905 116.855 28.59 115.782 27.96C114.708 27.3067 114.125 26.4433 114.032 25.37L115.047 25.09C115.047 25.8833 115.49 26.5483 116.377 27.085C117.287 27.5983 118.453 27.855 119.877 27.855C121.347 27.855 122.537 27.5867 123.447 27.05C124.38 26.5133 124.847 25.825 124.847 24.985C124.847 24.1917 124.462 23.55 123.692 23.06C122.922 22.57 121.872 22.1383 120.542 21.765L118.372 21.135C115.478 20.295 113.297 19.2333 111.827 17.95C110.357 16.6667 109.622 14.905 109.622 12.665C109.622 11.055 110.065 9.63167 110.952 8.395C111.862 7.135 113.087 6.14333 114.627 5.42C116.19 4.69666 117.952 4.335 119.912 4.335C121.685 4.335 123.283 4.62666 124.707 5.21C126.153 5.77 127.343 6.575 128.277 7.625C129.233 8.675 129.84 9.9 130.097 11.3L129.082 11.58C128.872 10.3433 128.347 9.25833 127.507 8.325C126.667 7.39166 125.593 6.66833 124.287 6.155C122.98 5.64167 121.522 5.385 119.912 5.385C118.138 5.385 116.552 5.71167 115.152 6.365C113.775 6.995 112.678 7.85833 111.862 8.955C111.068 10.0517 110.672 11.3117 110.672 12.735C110.672 14.6483 111.337 16.1883 112.667 17.355C114.02 18.4983 116.015 19.4317 118.652 20.155L120.822 20.75C122.432 21.1933 123.68 21.73 124.567 22.36C125.453 22.99 125.897 23.8417 125.897 24.915C125.897 26.105 125.348 27.0733 124.252 27.82C123.155 28.5433 121.697 28.905 119.877 28.905ZM119.877 31.215C117.683 31.215 115.84 30.7367 114.347 29.78C112.877 28.8 112.013 27.5283 111.757 25.965L112.807 25.685C112.993 27.0383 113.717 28.1233 114.977 28.94C116.26 29.7567 117.893 30.165 119.877 30.165C121.323 30.165 122.595 29.9433 123.692 29.5C124.788 29.0567 125.64 28.4383 126.247 27.645C126.853 26.8517 127.157 25.9417 127.157 24.915C127.157 23.4917 126.62 22.3717 125.547 21.555C124.473 20.715 122.992 20.0383 121.102 19.525L118.967 18.93C116.703 18.3 114.965 17.5067 113.752 16.55C112.538 15.5933 111.932 14.3217 111.932 12.735C111.932 11.545 112.27 10.495 112.947 9.585C113.647 8.675 114.603 7.96333 115.817 7.45C117.03 6.91333 118.395 6.645 119.912 6.645C121.335 6.645 122.607 6.86667 123.727 7.31C124.87 7.73 125.803 8.33667 126.527 9.13C127.25 9.92333 127.693 10.845 127.857 11.895L126.807 12.175C126.643 10.8217 125.92 9.73667 124.637 8.92C123.377 8.10333 121.802 7.695 119.912 7.695C118.582 7.695 117.392 7.91666 116.342 8.36C115.292 8.78 114.463 9.375 113.857 10.145C113.273 10.8917 112.982 11.755 112.982 12.735C112.982 14.065 113.507 15.115 114.557 15.885C115.63 16.655 117.182 17.3317 119.212 17.915L121.312 18.51C123.482 19.1167 125.173 19.9217 126.387 20.925C127.6 21.905 128.207 23.235 128.207 24.915C128.207 26.1517 127.857 27.2483 127.157 28.205C126.457 29.1383 125.477 29.8733 124.217 30.41C122.98 30.9467 121.533 31.215 119.877 31.215ZM119.877 33.525C118.057 33.525 116.412 33.245 114.942 32.685C113.495 32.1017 112.293 31.2967 111.337 30.27C110.403 29.22 109.797 27.9833 109.517 26.56L110.532 26.28C110.765 27.54 111.29 28.6367 112.107 29.57C112.947 30.48 114.032 31.1917 115.362 31.705C116.692 32.2183 118.197 32.475 119.877 32.475C121.79 32.475 123.458 32.16 124.882 31.53C126.328 30.8767 127.448 29.99 128.242 28.87C129.058 27.7267 129.467 26.4083 129.467 24.915C129.467 22.9317 128.778 21.345 127.402 20.155C126.025 18.965 124.088 18.0083 121.592 17.285L119.527 16.69C117.823 16.2 116.517 15.6633 115.607 15.08C114.697 14.4967 114.242 13.715 114.242 12.735C114.242 11.5917 114.778 10.6817 115.852 10.005C116.925 9.305 118.278 8.955 119.912 8.955C121.498 8.955 122.805 9.28167 123.832 9.935C124.858 10.5883 125.442 11.44 125.582 12.49L124.567 12.77C124.52 11.9533 124.065 11.2883 123.202 10.775C122.362 10.2617 121.265 10.005 119.912 10.005C118.628 10.005 117.532 10.25 116.622 10.74C115.735 11.23 115.292 11.8717 115.292 12.665C115.292 13.3883 115.7 13.9717 116.517 14.415C117.357 14.8583 118.453 15.2783 119.807 15.675L121.802 16.27C124.625 17.11 126.783 18.2067 128.277 19.56C129.77 20.89 130.517 22.6983 130.517 24.985C130.517 26.6417 130.062 28.1233 129.152 29.43C128.265 30.7133 127.017 31.7167 125.407 32.44C123.82 33.1633 121.977 33.525 119.877 33.525ZM137.907 33V4.86H138.957V33H137.907ZM133.287 33V4.86H134.337V33H133.287ZM135.597 33V4.86H136.647V33H135.597ZM140.217 5.91V4.86H154.182V5.91H140.217ZM140.217 8.22V7.17H154.182V8.22H140.217ZM140.217 10.53V9.48H154.182V10.53H140.217ZM140.217 17.145V16.095H152.187V17.145H140.217ZM140.217 19.455V18.405H152.187V19.455H140.217ZM140.217 21.765V20.715H152.187V21.765H140.217ZM140.217 28.38V27.33H154.182V28.38H140.217ZM140.217 30.69V29.64H154.182V30.69H140.217ZM140.217 33V31.95H154.182V33H140.217ZM161.594 33V4.86H162.644V33H161.594ZM156.974 33V4.86H158.024V33H156.974ZM159.284 33V4.86H160.334V33H159.284ZM163.904 21.24V20.19H172.129C173.459 20.19 174.66 19.8983 175.734 19.315C176.83 18.7317 177.694 17.9033 178.324 16.83C178.977 15.7567 179.304 14.4967 179.304 13.05C179.304 11.6033 178.977 10.3433 178.324 9.27C177.694 8.19667 176.83 7.36833 175.734 6.785C174.66 6.20167 173.459 5.91 172.129 5.91H163.904V4.86H172.129C173.645 4.86 175.022 5.21 176.259 5.91C177.519 6.58666 178.51 7.54333 179.234 8.78C179.98 9.99333 180.354 11.4167 180.354 13.05C180.354 14.6833 179.98 16.1183 179.234 17.355C178.51 18.5683 177.519 19.525 176.259 20.225C175.022 20.9017 173.645 21.24 172.129 21.24H163.904ZM163.904 18.93V17.88H172.129C173.482 17.88 174.625 17.46 175.559 16.62C176.515 15.7567 176.994 14.5667 176.994 13.05C176.994 11.5333 176.515 10.355 175.559 9.515C174.625 8.65167 173.482 8.22 172.129 8.22H163.904V7.17H172.129C173.225 7.17 174.217 7.415 175.104 7.905C175.99 8.37167 176.702 9.04833 177.239 9.935C177.775 10.7983 178.044 11.8367 178.044 13.05C178.044 14.2633 177.775 15.3133 177.239 16.2C176.702 17.0633 175.99 17.74 175.104 18.23C174.217 18.6967 173.225 18.93 172.129 18.93H163.904ZM163.904 16.62V15.57H172.129C172.829 15.57 173.424 15.3717 173.914 14.975C174.427 14.555 174.684 13.9133 174.684 13.05C174.684 12.1633 174.427 11.5217 173.914 11.125C173.424 10.7283 172.829 10.53 172.129 10.53H163.904V9.48H172.129C173.132 9.48 173.984 9.78333 174.684 10.39C175.384 10.9967 175.734 11.8833 175.734 13.05C175.734 14.2167 175.384 15.1033 174.684 15.71C173.984 16.3167 173.132 16.62 172.129 16.62H163.904Z" fill="#26338A"/>
</svg>
